<?xml version="1.0" encoding="utf-8"?>
<svg version="1.1" xmlns:xlink="http://www.w3.org/1999/xlink" width="15px" height="15px" xmlns="http://www.w3.org/2000/svg">
  <g transform="matrix(1 0 0 1 -320 -133 )">
    <path d="M 11.03515625 10.15625  C 11.1588541666666 10.0325520833333  11.220703125 9.8828125  11.220703125 9.70703125  C 11.220703125 9.53776041666669  11.1588541666666 9.39127604166669  11.03515625 9.267578125  L 9.267578125 7.5  L 11.03515625 5.732421875  C 11.1588541666666 5.60872395833331  11.220703125 5.46223958333331  11.220703125 5.29296875  C 11.220703125 5.1171875  11.1588541666666 4.96744791666669  11.03515625 4.84375  L 10.15625 3.96484375  C 10.0325520833334 3.84114583333331  9.8828125 3.779296875  9.70703125 3.779296875  C 9.53776041666663 3.779296875  9.39127604166663 3.84114583333331  9.267578125 3.96484375  L 7.5 5.732421875  L 5.732421875 3.96484375  C 5.60872395833337 3.84114583333331  5.46223958333337 3.779296875  5.29296875 3.779296875  C 5.1171875 3.779296875  4.96744791666663 3.84114583333331  4.84375 3.96484375  L 3.96484375 4.84375  C 3.84114583333337 4.96744791666669  3.779296875 5.1171875  3.779296875 5.29296875  C 3.779296875 5.46223958333331  3.84114583333337 5.60872395833331  3.96484375 5.732421875  L 5.732421875 7.5  L 3.96484375 9.267578125  C 3.84114583333337 9.39127604166669  3.779296875 9.53776041666669  3.779296875 9.70703125  C 3.779296875 9.8828125  3.84114583333337 10.0325520833333  3.96484375 10.15625  L 4.84375 11.03515625  C 4.96744791666663 11.1588541666667  5.1171875 11.220703125  5.29296875 11.220703125  C 5.46223958333337 11.220703125  5.60872395833337 11.1588541666667  5.732421875 11.03515625  L 7.5 9.267578125  L 9.267578125 11.03515625  C 9.39127604166663 11.1588541666667  9.53776041666663 11.220703125  9.70703125 11.220703125  C 9.8828125 11.220703125  10.0325520833334 11.1588541666667  10.15625 11.03515625  L 11.03515625 10.15625  Z M 13.994140625 3.7353515625  C 14.6647135416666 4.88444010416669  15 6.13932291666669  15 7.5  C 15 8.86067708333331  14.6647135416666 10.1155598958333  13.994140625 11.2646484375  C 13.3235677083333 12.4137369791667  12.4137369791667 13.3235677083333  11.2646484375 13.994140625  C 10.1155598958333 14.6647135416667  8.86067708333337 15  7.5 15  C 6.13932291666663 15  4.88444010416674 14.6647135416667  3.7353515625 13.994140625  C 2.58626302083326 13.3235677083333  1.67643229166674 12.4137369791667  1.005859375 11.2646484375  C 0.335286458333371 10.1155598958333  0 8.86067708333331  0 7.5  C 0 6.13932291666669  0.335286458333371 4.88444010416669  1.005859375 3.7353515625  C 1.67643229166674 2.58626302083331  2.58626302083326 1.67643229166663  3.7353515625 1.005859375  C 4.88444010416674 0.335286458333314  6.13932291666663 0  7.5 0  C 8.86067708333337 0  10.1155598958333 0.335286458333314  11.2646484375 1.005859375  C 12.4137369791667 1.67643229166663  13.3235677083333 2.58626302083331  13.994140625 3.7353515625  Z " fill-rule="nonzero" fill="#cccccc" stroke="none" transform="matrix(1 0 0 1 320 133 )" />
  </g>
</svg>