<?xml version="1.0" encoding="utf-8"?>
<svg version="1.1" xmlns:xlink="http://www.w3.org/1999/xlink" width="21px" height="18px" xmlns="http://www.w3.org/2000/svg">
  <g transform="matrix(1 0 0 1 -105 -563 )">
    <path d="M 15.918 9.63458181818186  C 15.918 10.1254909090909  16.2998181818182 10.5162545454546  16.7751818181818 10.5162545454546  C 17.246011365217 10.509909428894  17.6261947730409 10.1188636379894  17.6323636363636 9.63458181818186  C 17.6323636363636 9.14563636363641  17.2515 8.7529090909091  16.7751818181818 8.7529090909091  C 16.2988636363636 8.7529090909091  15.918 9.14563636363641  15.918 9.63458181818186  Z M 11.6941363636364 9.63458181818186  C 11.6941363636364 10.1254909090909  12.075 10.5162545454546  12.5513181818182 10.5162545454546  C 13.0221477288534 10.509909428894  13.4023311366772 10.1188636379894  13.4085 9.63458181818186  C 13.4085 9.14563636363641  13.0266818181818 8.7529090909091  12.5513181818182 8.7529090909091  C 12.0740454545455 8.7529090909091  11.6941363636364 9.14563636363641  11.6941363636364 9.63458181818186  Z M 18.8198181818182 15.4646181818182  C 18.6943448160612 15.5363260078017  18.6280550066836 15.6830004697468  18.6556363636364 15.8278909090909  C 18.6556363636364 15.8750181818182  18.6556363636364 15.9231272727272  18.6795 15.9722181818182  C 18.7730454545454 16.3816363636363  18.9601363636364 17.0335636363636  18.9601363636364 17.0581090909091  C 18.9601363636364 17.1297818181818  18.984 17.1778909090909  18.984 17.2269818181818  C 18.9840000000112 17.3462775555618  18.8899797974757 17.4429840495984  18.7740000000112 17.4429840495984  C 18.7253181818182 17.4429818181818  18.7024090909091 17.4194181818182  18.6556363636364 17.3958545454545  L 17.2725 16.5750545454545  C 17.1715211184532 16.5178704743699  17.0592537244759 16.4849735170649  16.9441363636364 16.4788363636363  C 16.8744545454545 16.4788363636363  16.8038181818182 16.4788363636363  16.7570454545454 16.5024  C 16.1003181818182 16.6958181818182  15.4206818181818 16.7920363636364  14.6942727272727 16.7920363636364  C 11.2006363636364 16.7920363636364  8.3875909090909 14.379709090909  8.3875909090909 11.3871272727273  C 8.3875909090909 8.39552727272729  11.2006363636364 5.98221818181821  14.6942727272727 5.98221818181821  C 18.1869545454545 5.98221818181821  21 8.39552727272729  21 11.3871272727273  C 21 13.0041818181818  20.1561818181818 14.4759272727273  18.8198181818182 15.4656  Z M 14.9605909090909 5.00629090909092  C 14.8715297355958 5.00324531822582  14.7824282901741 5.00160876106503  14.6933181818182 5.00138181818181  C 10.7090454545454 5.00138181818181  7.43304545454545 7.80938181818181  7.43304545454545 11.3881090909091  C 7.43304545454545 11.9320363636363  7.50940909090909 12.4582909090909  7.65068181818181 12.9590181818182  L 7.56572727272726 12.9590181818182  C 6.73169887462548 12.950355418555  5.90240241753827 12.8288768751727  5.09918181818182 12.5977090909091  C 5.02854545454545 12.5731636363636  4.95790909090908 12.5731636363636  4.88727272727272 12.5731636363636  C 4.74620435328258 12.5762460877346  4.6084813357642 12.6179301288536  4.48827272727272 12.6939272727273  L 2.81972727272728 13.6806545454545  C 2.77199999999999 13.7052  2.72522727272727 13.7297454545454  2.67845454545454 13.7297454545454  C 2.53676214878611 13.7281525172648  2.42227596175017 13.6103952963135  2.42072727272728 13.4646545454545  C 2.42072727272728 13.392  2.44363636363636 13.3438909090909  2.4675 13.2712363636363  C 2.4904090909091 13.2476727272727  2.70231818181819 12.4524  2.81972727272728 11.9713090909091  C 2.81972727272728 11.9222181818182  2.84263636363636 11.8505454545455  2.84263636363636 11.8024363636364  C 2.84211468225807 11.6318219500372  2.76406890882083 11.4712706446807  2.63168181818182 11.3684727272727  C 1.00990909090909 10.1873454545454  0 8.42989090909094  0 6.47803636363636  C 0 2.89145454545451  3.40772727272727 0  7.58863636363637 0  C 11.1825 0  14.2036363636364 2.12956363636363  14.9605909090909 5.00530909090907  Z M 9.0615 4.40934545454547  C 9.0615 4.97192727272727  9.4939090909091 5.4166909090909  10.0408636363636 5.4166909090909  C 10.5878181818182 5.4166909090909  11.0202272727273 4.94836363636364  11.0202272727273 4.40934545454547  C 11.0202272727273 3.84676363636368  10.5878181818182 3.40199999999999  10.0408636363636 3.40199999999999  C 9.4939090909091 3.40199999999999  9.0615 3.84676363636368  9.0615 4.40934545454547  Z M 4.04059090909091 4.40934545454547  C 4.04059090909091 4.97192727272727  4.47395454545455 5.4166909090909  5.01995454545454 5.4166909090909  C 5.56690909090909 5.4166909090909  6.00027272727273 4.94836363636364  6.00027272727273 4.40934545454547  C 6.00027272727273 3.84676363636368  5.56690909090909 3.40199999999999  5.01995454545454 3.40199999999999  C 4.47395454545455 3.40199999999999  4.04059090909091 3.84676363636368  4.04059090909091 4.40934545454547  Z " fill-rule="nonzero" fill="#ffffff" stroke="none" transform="matrix(1 0 0 1 105 563 )" />
  </g>
</svg>