<?xml version="1.0" encoding="utf-8"?>
<svg version="1.1" xmlns:xlink="http://www.w3.org/1999/xlink" width="15px" height="21px" xmlns="http://www.w3.org/2000/svg">
  <g transform="matrix(1 0 0 1 -244 -329 )">
    <path d="M 14.5052083333333 9.5771484375  C 14.8350694444444 9.8369140625  15 10.14453125  15 10.5  C 15 10.85546875  14.8350694444444 11.1630859375  14.5052083333333 11.4228515625  L 2.83854166666667 20.6103515625  C 2.50868055555556 20.8701171875  2.11805555555556 21  1.66666666666667 21  C 1.21527777777778 21  0.824652777777778 20.8701171875  0.494791666666667 20.6103515625  C 0.164930555555556 20.3505859375  0 20.04296875  0 19.6875  L 0 1.3125  C 0 0.957031249999997  0.164930555555556 0.649414062499997  0.494791666666667 0.3896484375  C 0.824652777777778 0.129882812499998  1.21527777777778 0  1.66666666666667 0  C 2.11805555555556 0  2.50868055555556 0.129882812499998  2.83854166666667 0.3896484375  L 14.5052083333333 9.5771484375  Z " fill-rule="nonzero" fill="#8c8c8c" stroke="none" transform="matrix(1 0 0 1 244 329 )" />
  </g>
</svg>