<?xml version="1.0" encoding="utf-8"?>
<svg version="1.1" xmlns:xlink="http://www.w3.org/1999/xlink" width="15px" height="21px" xmlns="http://www.w3.org/2000/svg">
  <g transform="matrix(1 0 0 1 -119 -329 )">
    <path d="M 14.5052083333333 0.3896484375  C 14.8350694444444 0.649414062499997  15 0.957031249999997  15 1.3125  L 15 19.6875  C 15 20.04296875  14.8350694444444 20.3505859375  14.5052083333333 20.6103515625  C 14.1753472222222 20.8701171875  13.7847222222222 21  13.3333333333333 21  C 12.8819444444444 21  12.4913194444444 20.8701171875  12.1614583333333 20.6103515625  L 0.494791666666667 11.4228515625  C 0.164930555555556 11.1630859375  0 10.85546875  0 10.5  C 0 10.14453125  0.164930555555556 9.8369140625  0.494791666666667 9.5771484375  L 12.1614583333333 0.3896484375  C 12.4913194444444 0.129882812499998  12.8819444444444 0  13.3333333333333 0  C 13.7847222222222 0  14.1753472222222 0.129882812499998  14.5052083333333 0.3896484375  Z " fill-rule="nonzero" fill="#8c8c8c" stroke="none" transform="matrix(1 0 0 1 119 329 )" />
  </g>
</svg>