<?xml version="1.0" encoding="utf-8"?>
<svg version="1.1" xmlns:xlink="http://www.w3.org/1999/xlink" width="28px" height="22px" xmlns="http://www.w3.org/2000/svg">
  <g transform="matrix(1 0 0 1 -224 -713 )">
    <path d="M 13.0582959641256 16.5  L 13.9372197309417 16.5  L 15.7578475336323 14.6875  L 13.372197309417 12.3125  L 11.5515695067265 14.125  L 11.5515695067265 15  L 13.0582959641256 15  L 13.0582959641256 16.5  Z M 20.8273542600897 5.765625  C 21.0052316890882 5.58854166666666  21.0104633781764 5.41666666666666  20.8430493273543 5.25  C 20.6756352765321 5.08333333333333  20.5029895366218 5.08854166666666  20.3251121076233 5.265625  L 14.8318385650224 10.734375  C 14.6539611360239 10.9114583333333  14.6487294469357 11.0833333333333  14.8161434977578 11.25  C 14.98355754858 11.4166666666667  15.1562032884903 11.4114583333333  15.3340807174888 11.234375  L 20.8273542600897 5.765625  Z M 21.7847533632287 14.078125  C 21.9940209267564 14.1614583333333  22.0986547085202 14.3125  22.0986547085202 14.53125  L 22.0986547085202 17.5  C 22.0986547085202 18.7395833333333  21.656576980568 19.7994791666667  20.7724215246637 20.6796875  C 19.8882660687593 21.5598958333333  18.8236173393124 22  17.5784753363229 22  L 4.52017937219731 22  C 3.27503736920777 22  2.21038863976084 21.5598958333333  1.3262331838565 20.6796875  C 0.442077727952167 19.7994791666667  0 18.7395833333333  0 17.5  L 0 4.5  C 0 3.26041666666666  0.442077727952167 2.20052083333333  1.3262331838565 1.3203125  C 2.21038863976084 0.440104166666665  3.27503736920777 0  4.52017937219731 0  L 17.5784753363229 0  C 18.237668161435 0  18.8497757847534 0.130208333333332  19.414798206278 0.390624999999999  C 19.5717488789238 0.463541666666665  19.6659192825112 0.583333333333333  19.6973094170404 0.749999999999999  C 19.7286995515695 0.927083333333333  19.6816143497758 1.078125  19.5560538116592 1.203125  L 18.7869955156951 1.96875  C 18.6405082212257 2.11458333333333  18.4730941704036 2.15625  18.2847533632287 2.09375  C 18.0440956651719 2.03125  17.8086696562033 2  17.5784753363229 2  L 4.52017937219731 2  C 3.82959641255605 2  3.23841554559043 2.24479166666666  2.74663677130045 2.734375  C 2.25485799701046 3.22395833333333  2.00896860986547 3.8125  2 4.5  L 2 17.5  C 2.00896860986547 18.1875  2.25485799701046 18.7760416666667  2.74663677130045 19.265625  C 3.23841554559043 19.7552083333333  3.82959641255605 20  4.52017937219731 20  L 17.5784753363229 20  C 18.2690582959641 20  18.8602391629297 19.7552083333333  19.3520179372197 19.265625  C 19.8437967115097 18.7760416666667  20.0896860986547 18.1875  20.0896860986547 17.5  L 20.0896860986547 15.53125  C 20.0896860986547 15.3958333333333  20.1367713004484 15.28125  20.2309417040359 15.1875  L 21.2354260089686 14.1875  C 21.3923766816143 14.03125  21.575485799701 13.9947916666667  21.7847533632287 14.078125  Z M 10.0448430493274 13.5  L 20.5919282511211 3  L 25.1121076233184 7.5  L 14.5650224215247 18  L 10.0448430493274 18  L 10.0448430493274 13.5  Z M 28 4  C 28 4.41666666666667  27.8535127055306 4.77083333333333  27.5605381165919 5.0625  L 26.1165919282511 6.5  L 21.5964125560538 2  L 23.0403587443946 0.562499999999999  C 23.3333333333333 0.270833333333331  23.6890881913303 0.125000000000001  24.1076233183857 0.125000000000001  C 24.526158445441 0.125000000000001  24.881913303438 0.270833333333331  25.1748878923767 0.562499999999999  L 27.5605381165919 2.9375  C 27.8535127055306 3.22916666666666  28 3.58333333333333  28 4  Z " fill-rule="nonzero" fill="#00bfbf" stroke="none" transform="matrix(1 0 0 1 224 713 )" />
  </g>
</svg>