<?xml version="1.0" encoding="utf-8"?>
<svg version="1.1" xmlns:xlink="http://www.w3.org/1999/xlink" width="22px" height="26px" xmlns="http://www.w3.org/2000/svg">
  <g transform="matrix(1 0 0 1 -309 -711 )">
    <path d="M 21.85390625 18.7975260416667  C 21.9513020833333 19.6495225694444  22 20.5551215277778  22 21.5143229166667  C 22 22.7443576388889  21.6419270833333 23.7994791666667  20.92578125 24.6796875  C 20.2096354166667 25.5598958333333  19.3473958333333 26  18.3390625 26  L 3.6609375 26  C 2.65260416666667 26  1.79036458333333 25.5598958333333  1.07421875 24.6796875  C 0.358072916666667 23.7994791666667  0 22.7443576388889  0 21.5143229166667  C 0 20.5551215277778  0.0486979166666668 19.6495225694444  0.14609375 18.7975260416667  C 0.243489583333333 17.9455295138889  0.423958333333333 17.087890625  0.6875 16.224609375  C 0.951041666666667 15.361328125  1.28619791666667 14.6221788194444  1.69296875 14.0071614583333  C 2.09973958333333 13.3921440972222  2.63828125 12.8899739583333  3.30859375 12.5006510416667  C 3.97890625 12.111328125  4.74947916666667 11.9166666666667  5.6203125 11.9166666666667  C 7.12135416666667 13.3611111111111  8.91458333333333 14.0833333333333  11 14.0833333333333  C 13.0854166666667 14.0833333333333  14.8786458333333 13.3611111111111  16.3796875 11.9166666666667  C 17.2505208333333 11.9166666666667  18.02109375 12.111328125  18.69140625 12.5006510416667  C 19.36171875 12.8899739583333  19.9002604166667 13.3921440972222  20.30703125 14.0071614583333  C 20.7138020833333 14.6221788194444  21.0489583333333 15.361328125  21.3125 16.224609375  C 21.5760416666667 17.087890625  21.7565104166667 17.9455295138889  21.85390625 18.7975260416667  Z M 15.66640625 1.904296875  C 16.95546875 3.173828125  17.6 4.70572916666667  17.6 6.5  C 17.6 8.29427083333333  16.95546875 9.826171875  15.66640625 11.095703125  C 14.37734375 12.365234375  12.821875 13  11 13  C 9.178125 13  7.62265625 12.365234375  6.33359375 11.095703125  C 5.04453125 9.826171875  4.4 8.29427083333333  4.4 6.5  C 4.4 4.70572916666667  5.04453125 3.173828125  6.33359375 1.904296875  C 7.62265625 0.634765625  9.178125 0  11 0  C 12.821875 0  14.37734375 0.634765625  15.66640625 1.904296875  Z " fill-rule="nonzero" fill="#00bfbf" stroke="none" transform="matrix(1 0 0 1 309 711 )" />
  </g>
</svg>