<?xml version="1.0" encoding="utf-8"?>
<svg version="1.1" xmlns:xlink="http://www.w3.org/1999/xlink" width="34px" height="27px" xmlns="http://www.w3.org/2000/svg">
  <g transform="matrix(1 0 0 1 -26 -710 )">
    <path d="M 29.1127633209418 15.4255650818394  C 29.1268071045023 15.4536243180047  29.1338289962825 15.4957131722525  29 15.551831644583  L 29 25.6531566640686  C 29.1338289962825 26.0179267342167  29.0004130524577 26.3335931410756  28.7335811648079 26.6001558846454  C 28.4667492771582 26.8667186282151  28.1507641470467 27  27.7856257744734 27  L 19.6964064436183 27  L 19.6964064436183 18.9189399844115  L 14.3035935563817 18.9189399844115  L 14.3035935563817 27  L 6.21437422552664 27  C 5.84923585295333 27  5.5332507228418 26.8667186282151  5.26641883519207 26.6001558846454  C 4.99958694754234 26.3335931410756  4.86617100371747 26.0179267342167  5 25.6531566640686  L 5 15.551831644583  C 4.86617100371747 15.5378020265004  4.8696819496076 15.5167575993765  4.87670384138786 15.4886983632112  C 4.88372573316811 15.460639127046  4.88723667905824 15.4395946999221  4.88723667905824 15.4255650818394  L 17 5.45050662509743  L 29.1127633209418 15.4255650818394  Z M 33.9789343246592 13.6052221356196  C 33.9929781082197 13.794621979735  33.943824865758 13.9594699922058  33.8314745972739 14.099766173032  L 32.5254027261462 15.6570537802027  C 32.4130524576621 15.7833203429462  32.2655927302767 15.8604832424006  32.0830235439901 15.8885424785659  L 32.0198265179678 15.8885424785659  C 31.8372573316811 15.8885424785659  31.6897976042957 15.8394388152767  31.5774473358116 15.7412314886984  L 17 3.59859703819174  L 2.42255266418835 15.7412314886984  C 2.25402726146221 15.8534684333593  2.08550185873606 15.9025720966485  1.91697645600991 15.8885424785659  C 1.73440726972325 15.8604832424006  1.58694754233788 15.7833203429462  1.47459727385378 15.6570537802027  L 0.168525402726146 14.099766173032  C 0.0561751342420488 13.9594699922058  0.00702189178025614 13.794621979735  0.0210656753407683 13.6052221356196  C 0.0351094589012806 13.4158222915043  0.112350268484098 13.2650038971161  0.252788104089219 13.1527669524552  L 15.3990086741016 0.547155105222136  C 15.848409748038 0.182385035074042  16.3820735233375 0  17 0  C 17.6179264766625 0  18.151590251962 0.182385035074042  18.6009913258984 0.547155105222136  L 23.7410161090458 4.84021823850351  L 23.7410161090458 0.736554949337489  C 23.7410161090458 0.540140296180823  23.8042131350682 0.378799688230708  23.9306071871128 0.252533125487141  C 24.0570012391574 0.12626656274357  24.2185047501033 0.0631332813717852  24.4151177199504 0.0631332813717852  L 28.4597273853779 0.0631332813717852  C 28.6563403552251 0.0631332813717852  28.817843866171 0.12626656274357  28.9442379182156 0.252533125487141  C 29.0706319702602 0.378799688230708  29.1338289962825 0.540140296180823  29.1338289962825 0.736554949337489  L 29.1338289962825 9.32268121590023  L 33.7472118959108 13.1527669524552  C 33.8876497315159 13.2650038971161  33.9648905410987 13.4158222915043  33.9789343246592 13.6052221356196  Z " fill-rule="nonzero" fill="#00bfbf" stroke="none" transform="matrix(1 0 0 1 26 710 )" />
  </g>
</svg>