<?xml version="1.0" encoding="utf-8"?>
<svg version="1.1" xmlns:xlink="http://www.w3.org/1999/xlink" width="19px" height="21px" xmlns="http://www.w3.org/2000/svg">
  <g transform="matrix(1 0 0 1 -180 -562 )">
    <path d="M 17.3952 12.4511801242236  L 17.3962285714286 12.4511801242236  C 17.185115312995 11.8195661807261  16.9535731639352 11.1944976630997  16.7019428571429 10.5768944099379  L 15.7659428571429 8.34484472049689  C 15.7659428571429 8.31900621118012  15.7782857142857 7.87975155279503  15.7782857142857 7.65316770186337  C 15.7782857142857 3.8360248447205  13.8929142857143 0  9.25714285714284 0  C 4.62137142857145 0  2.73599999999999 3.8360248447205  2.73599999999999 7.6521739130435  C 2.73599999999999 7.87975155279503  2.74731428571431 8.31900621118012  2.74834285714286 8.34484472049689  L 1.81234285714285 10.5768944099378  C 1.55725714285714 11.215900621118  1.3032 11.8807453416149  1.11805714285714 12.4511801242236  C 0.233485714285706 15.1711801242236  0.52045714285714 16.2971428571429  0.738514285714302 16.3219875776397  C 1.20651428571429 16.3756521739131  2.56011428571429 14.2747826086957  2.56011428571429 14.2747826086957  C 2.56011428571429 15.4911801242236  3.21531428571427 17.0792546583851  4.63371428571429 18.2260869565217  C 4.10400000000001 18.3821118012423  3.45394285714286 18.6226086956522  3.03531428571429 18.9167701863354  C 2.65988571428571 19.1821118012422  2.7072 19.4534161490683  2.77508571428572 19.5627329192547  C 3.07234285714287 20.0407453416149  7.87165714285715 19.8678260869565  9.25817142857142 19.7187577639752  C 10.6436571428571 19.8678260869565  15.444 20.0407453416149  15.7402285714286 19.5617391304348  C 15.8081142857143 19.4524223602485  15.8554285714286 19.1821118012422  15.48 18.9167701863354  C 15.0613714285714 18.6226086956522  14.4113142857143 18.3821118012422  13.8805714285714 18.2250931677019  C 15.2989714285714 17.0792546583851  15.9541714285714 15.4911801242236  15.9541714285714 14.2737888198758  C 15.9541714285714 14.2737888198758  17.3077714285714 16.3756521739131  17.7757714285714 16.3209937888199  C 17.9938285714286 16.296149068323  18.2797714285714 15.1711801242236  17.3952 12.4511801242236  Z " fill-rule="nonzero" fill="#ffffff" stroke="none" transform="matrix(1 0 0 1 180 562 )" />
  </g>
</svg>