<?xml version="1.0" encoding="utf-8"?>
<svg version="1.1" xmlns:xlink="http://www.w3.org/1999/xlink" width="22px" height="20px" xmlns="http://www.w3.org/2000/svg">
  <g transform="matrix(1 0 0 1 -251 -562 )">
    <path d="M 16.4387826086956 9.63747035573124  C 17.6951930434782 10.0403162055336  19.0938573913043 11.0104347826087  19.0938573913043 12.7245849802372  C 19.0938573913043 15.5640316205534  15.1346226086956 19.1362055335969  9.18184347826087 19.1362055335969  C 4.64066086956524 19.1362055335969  0 16.861976284585  0 13.1222924901186  C 0 11.1676679841897  1.19771826086958 8.90679841897236  3.25990260869565 6.77438735177867  C 6.01843478260867 3.92774703557308  9.23257739130435 2.62980237154153  10.4412382608696 3.88047430830039  C 10.9754365217391 4.43233201581023  11.0261704347826 5.38498023715414  10.6839652173913 6.52363636363634  C 10.5068939130435 7.09604743083008  11.2062260869565 6.78055335968378  11.2062260869565 6.78055335968378  C 13.4345391304348 5.8166007905138  15.3803339130435 5.7590513833992  16.0896139130435 6.80830039525694  C 16.4676313043478 7.36632411067194  16.4308243478261 8.15043478260873  16.0816556521739 9.05889328063239  C 15.9195060869565 9.47715415019763  16.1294052173913 9.54292490118576  16.4397773913043 9.63747035573124  Z M 2.20841739130435 14.0143083003953  C 2.44418086956517 16.4745454545455  5.57277217391305 18.1650592885376  9.19477565217392 17.7961264822134  C 12.8167791304348 17.4241106719368  15.5623791304348 15.1324110671937  15.3296 12.675256916996  C 15.0938365217391 10.2181027667984  11.9652452173913 8.52553359683799  8.34324173913046 8.89652173913049  C 4.7222330434783 9.26648221343874  1.97364869565217 11.5581818181818  2.20841739130435 14.0143083003953  Z M 6.85106782608693 16.7417391304348  C 5.10820869565214 16.1600790513834  4.37107478260873 14.3842687747036  5.13307826086958 12.7821343873518  C 5.88314434782609 11.2128853754941  7.83092869565218 10.3260079051384  9.55588173913043 10.7884584980238  C 11.3395269565218 11.2642687747036  12.2487582608695 13.0020553359684  11.5215721739131 14.6935968379447  C 10.7814539130435 16.4221343873518  8.6546086956522 17.3429249011858  6.85106782608693 16.7417391304348  Z M 6.20246956521743 13.9444268774704  C 5.85031652173916 14.5065612648222  6.01445565217387 15.1796837944664  6.57153391304348 15.4407114624506  C 7.13657043478258 15.7048221343874  7.88962086956525 15.4540711462451  8.23878956521736 14.8754940711463  C 8.58298434782608 14.2917786561265  8.40093913043478 13.6248221343874  7.83391304347828 13.3761264822135  C 7.27385043478262 13.1325691699605  6.54964869565219 13.384347826087  6.20246956521743 13.9444268774704  Z M 8.60387478260873 13.0205533596838  C 8.48151652173914 13.2404743083004  8.55015652173915 13.4912252964427  8.76602434782609 13.5826877470356  C 8.98388173913042 13.677233201581  9.26441043478263 13.5703557312253  9.39074782608697 13.3452964426878  C 9.51310608695655 13.119209486166  9.43451826086954 12.8664031620553  9.21367652173916 12.7821343873518  C 8.99880347826087 12.6958102766799  8.730212173913 12.8006324110672  8.60387478260873 13.0205533596838  Z M 18.9123603869002 6.80768965792566  C 18.9123603869002 7.11323905620947  18.8658495631522 7.41688791672175  18.7745321739131 7.70750988142294  C 18.6797129920137 8.01736564967393  18.4014294027039 8.22799057470701  18.086858407521 8.22799057470701  C 17.6885410409909 8.22799057470701  17.3656410162166 7.89441616894851  17.3656410162166 7.4829312861695  C 17.3656410162166 7.40168579821341  17.3785043966215 7.32098729665501  17.4037217391304 7.24403162055336  C 17.5577620311984 6.75977333431194  17.4483833261975 6.2273650803009  17.1172243478261 5.84948616600792  C 16.7853247427921 5.47319032132151  16.2851482346429 5.3069508896649  15.8031165217391 5.4127272727273  C 15.7535804869694 5.42367755356082  15.7030643945134 5.42919852597316  15.6524069565218 5.42919852597316  C 15.2546237218077 5.42919852597316  14.9321566964232 5.09607143363388  14.9321566964232 4.68513833992091  C 14.9321566964232 4.33420509456766  15.1695140203204 4.03098082360629  15.5016973913043 3.95754940711464  C 15.6954523223291 3.91478427656949  15.8930290316839 3.8932232547636  16.0911569086393 3.8932232547636  C 17.6492645658524 3.8932232547636  18.9123603869002 5.19807430956502  18.9123603869002 6.80768965792566  Z M 14.2587122428885 1.78860849416918  C 14.2587122428885 1.39668009879784  14.5128424623047 1.05332715019944  14.8789634782609 0.950592885375499  C 16.9039483993409 0.504784868970887  19.005422727759 1.20780588190627  20.3930434782608 2.79525691699604  C 21.7815836861496 4.38524633096398  22.2441499692939 6.61942706448173  21.6066782608696 8.65707509881423  C 21.4960114611891 9.01346279611568  21.1751920249922 9.25520561298708  20.8128929612172 9.25520561298708  C 20.7243290750449 9.25520561298708  20.6363309655077 9.24062620988593  20.5522086956522 9.21201581027668  C 20.1119371384671 9.06402530609762  19.8707289240352 8.57577562682849  20.0130365217391 8.12063241106722  C 20.1456368858206 7.69724429827858  20.2131668081915 7.25499845820173  20.2131668081915 6.8100017520992  C 20.2131668081915 4.45857848402517  18.3679601838611 2.55237329360119  16.0917824603654 2.55237329360119  C 15.8024998267788 2.55237329360119  15.5140210808032 2.5838373123716  15.2311165217391 2.64624505928856  C 15.1875200674255 2.65339587073629  15.1434460971369 2.65698794080953  15.0993035472363 2.65698794080953  C 14.6350577890046 2.65698794080953  14.2587122428885 2.26820121961515  14.2587122428885 1.78860849416918  Z " fill-rule="nonzero" fill="#ffffff" stroke="none" transform="matrix(1 0 0 1 251 562 )" />
  </g>
</svg>